<svg width="29" height="29" viewBox="0 0 29 29" fill="none" xmlns="http://www.w3.org/2000/svg">
<path d="M24.6543 16.4157L24.6543 16.4157C24.595 16.6767 24.363 16.8619 24.0954 16.8619H10.987H10.3744L10.4972 17.462L10.7898 18.893L10.8716 19.2928H11.2797H23.2823C23.6501 19.2928 23.9228 19.6343 23.8413 19.993L23.5946 21.0785L23.5066 21.4657L23.8638 21.6392C24.5339 21.9645 24.9942 22.6506 24.9942 23.4433C24.9942 24.5501 24.097 25.4474 22.9901 25.4474C21.8833 25.4474 20.986 24.5501 20.986 23.4433C20.986 22.8825 21.216 22.3763 21.5882 22.0118L22.4631 21.1546H21.2383H11.8636H10.6387L11.5138 22.0118C11.8859 22.3764 12.1159 22.8825 12.1159 23.4433C12.1159 24.5501 11.2187 25.4474 10.1118 25.4474C9.00499 25.4474 8.10772 24.5501 8.10772 23.4433C8.10772 22.7006 8.5119 22.0518 9.1149 21.7051L9.42783 21.5251L9.35549 21.1714L6.21426 5.81429L6.13248 5.41448H5.7244H2.5995C2.28292 5.41448 2.02631 5.15787 2.02631 4.84129V4.12583C2.02631 3.80926 2.28293 3.55264 2.5995 3.55264H7.18421C7.45652 3.55264 7.69123 3.74423 7.74576 4.01092L7.74577 4.01095L8.15564 6.01469L8.23742 6.41448H8.6455H26.2092C26.577 6.41448 26.8497 6.75603 26.7682 7.11471L24.6543 16.4157Z" stroke="#EBC367"/>
</svg>
