<svg width="38" height="44" viewBox="0 0 38 44" fill="none" xmlns="http://www.w3.org/2000/svg">
<g clip-path="url(#clip0_3_108)">
<path d="M33.9286 2.75H4.07143C2.99162 2.75 1.95603 3.1846 1.19249 3.95818C0.428953 4.73177 0 5.78098 0 6.875L0 37.125C0 38.219 0.428953 39.2682 1.19249 40.0418C1.95603 40.8154 2.99162 41.25 4.07143 41.25H15.7132V28.1609H10.3694V22H15.7132V17.3044C15.7132 11.9634 18.8516 9.01312 23.6584 9.01312C25.9604 9.01312 28.3677 9.42906 28.3677 9.42906V14.6713H25.7153C23.102 14.6713 22.2868 16.3144 22.2868 17.9996V22H28.1208L27.1878 28.1609H22.2868V41.25H33.9286C35.0084 41.25 36.044 40.8154 36.8075 40.0418C37.571 39.2682 38 38.219 38 37.125V6.875C38 5.78098 37.571 4.73177 36.8075 3.95818C36.044 3.1846 35.0084 2.75 33.9286 2.75Z" fill="#FFA000"/>
</g>
<defs>
<clipPath id="clip0_3_108">
<rect width="38" height="44" fill="white"/>
</clipPath>
</defs>
</svg>
