<svg width="38" height="44" viewBox="0 0 38 44" fill="none" xmlns="http://www.w3.org/2000/svg">
<g clip-path="url(#clip0_3_106)">
<path d="M19.0085 12.1172C13.6139 12.1172 9.26251 16.5258 9.26251 21.9914C9.26251 27.4571 13.6139 31.8656 19.0085 31.8656C24.4031 31.8656 28.7545 27.4571 28.7545 21.9914C28.7545 16.5258 24.4031 12.1172 19.0085 12.1172ZM19.0085 28.411C15.5223 28.411 12.6723 25.5321 12.6723 21.9914C12.6723 18.4508 15.5139 15.5719 19.0085 15.5719C22.5031 15.5719 25.3447 18.4508 25.3447 21.9914C25.3447 25.5321 22.4947 28.411 19.0085 28.411ZM31.4263 11.7133C31.4263 12.9938 30.4085 14.0164 29.1531 14.0164C27.8893 14.0164 26.8799 12.9852 26.8799 11.7133C26.8799 10.4414 27.8978 9.41018 29.1531 9.41018C30.4085 9.41018 31.4263 10.4414 31.4263 11.7133ZM37.8813 14.0508C37.7371 10.9656 37.0415 8.23284 34.8107 5.98127C32.5884 3.72971 29.8911 3.02502 26.846 2.87034C23.7076 2.68987 14.3009 2.68987 11.1625 2.87034C8.12591 3.01643 5.42858 3.72112 3.19778 5.97268C0.966978 8.22424 0.279925 10.9571 0.127246 14.0422C-0.0508789 17.2219 -0.0508789 26.7524 0.127246 29.9321C0.271442 33.0172 0.966978 35.75 3.19778 38.0016C5.42858 40.2532 8.11742 40.9578 11.1625 41.1125C14.3009 41.293 23.7076 41.293 26.846 41.1125C29.8911 40.9664 32.5884 40.2617 34.8107 38.0016C37.033 35.75 37.7286 33.0172 37.8813 29.9321C38.0594 26.7524 38.0594 17.2305 37.8813 14.0508ZM33.8268 33.3438C33.1652 35.0281 31.8844 36.3258 30.2134 37.0047C27.7112 38.0102 21.7737 37.7781 19.0085 37.7781C16.2433 37.7781 10.2973 38.0016 7.80358 37.0047C6.14108 36.3344 4.86028 35.0367 4.19019 33.3438C3.19778 30.8086 3.4268 24.793 3.4268 21.9914C3.4268 19.1899 3.20626 13.1656 4.19019 10.6391C4.8518 8.95471 6.1326 7.65706 7.80358 6.97815C10.3058 5.97268 16.2433 6.20471 19.0085 6.20471C21.7737 6.20471 27.7197 5.98127 30.2134 6.97815C31.8759 7.64846 33.1567 8.94612 33.8268 10.6391C34.8192 13.1742 34.5902 19.1899 34.5902 21.9914C34.5902 24.793 34.8192 30.8172 33.8268 33.3438Z" fill="#FFA000"/>
</g>
<defs>
<clipPath id="clip0_3_106">
<rect width="38" height="44" fill="white"/>
</clipPath>
</defs>
</svg>
