<svg width="126" height="55" viewBox="0 0 126 55" fill="none" xmlns="http://www.w3.org/2000/svg">
<path d="M51.6144 27.5C51.6144 33.8955 49.0738 40.0291 44.5514 44.5515C40.0291 49.0738 33.8955 51.6144 27.5 51.6144C24.3332 51.6144 21.1975 50.9907 18.2718 49.7788C15.3461 48.567 12.6877 46.7907 10.4485 44.5515C8.20928 42.3122 6.43302 39.6539 5.22116 36.7282C4.0093 33.8025 3.38556 30.6668 3.38556 27.5C3.38556 24.3333 4.0093 21.1975 5.22116 18.2718C6.43302 15.3461 8.20928 12.6878 10.4485 10.4485C12.6877 8.20931 15.3461 6.43305 18.2718 5.22119C21.1975 4.00933 24.3332 3.38559 27.5 3.38559C33.8955 3.38559 40.0291 5.92621 44.5514 10.4485C49.0738 14.9709 51.6144 21.1045 51.6144 27.5Z" fill="#B1603B"/>
<path d="M45.4333 26.1718C45.0862 26.1718 44.8068 26.4511 44.8068 26.7982V32.87C44.8068 33.217 45.0862 33.4964 45.4333 33.4964C45.7803 33.4964 46.0597 33.217 46.0597 32.87V26.7982C46.0597 26.4511 45.7803 26.1718 45.4333 26.1718Z" fill="#00695C"/>
<path fill-rule="evenodd" clip-rule="evenodd" d="M16.3829 28.5554C15.1495 28.5637 13.7829 28.9827 11.9718 30.1388C8.83062 32.1437 6.14808 33.2019 4.22186 33.7613C5.59885 38.8827 8.6257 43.4073 12.8338 46.6347C17.042 49.8622 22.1967 51.6124 27.4999 51.6144C32.837 51.6076 38.021 49.8304 42.2397 46.5613C46.4584 43.2922 49.4734 38.716 50.8123 33.5495C49.3541 34.2342 47.9352 35.0931 46.7731 36.1674C42.375 40.2331 37.5932 30.9608 28.4133 31.0978C21.8152 31.1963 19.5348 28.5343 16.3829 28.5554Z" fill="#FFB300"/>
<path d="M43.4293 28.2718C43.4293 28.6189 43.7087 28.8983 44.0558 28.8983H45.1159C45.463 28.8983 45.7424 28.6189 45.7424 28.2718C45.7424 27.9248 45.463 27.6454 45.1159 27.6454H44.0558C43.7087 27.6454 43.4293 27.9248 43.4293 28.2718Z" fill="#00695C"/>
<path d="M48.6876 29.2291C48.9089 29.2291 49.087 29.4073 49.087 29.6286V33.5004C49.087 33.7217 48.9089 33.8999 48.6876 33.8999C48.4663 33.8999 48.2881 33.7217 48.2881 33.5004V29.6286C48.2881 29.4073 48.4663 29.2291 48.6876 29.2291Z" fill="#004D40"/>
<path fill-rule="evenodd" clip-rule="evenodd" d="M38.6512 28.5554C39.8846 28.5637 41.2512 28.9827 43.0624 30.1388C46.2035 32.1437 48.886 33.2019 50.8123 33.7613C49.4353 38.8827 46.4084 43.4073 42.2003 46.6347C37.9922 49.8622 32.8375 51.6124 27.5342 51.6144C22.1971 51.6076 17.0131 49.8304 12.7944 46.5613C8.5757 43.2922 5.5607 38.716 4.2218 33.5495C5.67999 34.2342 7.09893 35.0931 8.26101 36.1674C12.6592 40.2331 17.4409 30.9608 26.6208 31.0978C33.2189 31.1963 35.4993 28.5343 38.6512 28.5554Z" fill="#FFA000"/>
<path d="M49.9655 30.5682C49.9655 30.7896 49.7873 30.9677 49.566 30.9677H48.89C48.6686 30.9677 48.4905 30.7896 48.4905 30.5682C48.4905 30.3469 48.6686 30.1688 48.89 30.1688H49.566C49.7873 30.1688 49.9655 30.3469 49.9655 30.5682Z" fill="#004D40"/>
<path d="M48.9361 31.5055C48.9361 31.7268 48.7579 31.9049 48.5366 31.9049H47.8605C47.6392 31.9049 47.4611 31.7268 47.4611 31.5055C47.4611 31.2842 47.6392 31.106 47.8605 31.106H48.5366C48.7579 31.106 48.9361 31.2842 48.9361 31.5055Z" fill="#004D40"/>
<path d="M40.8571 16.1072C40.8571 17.0449 40.4846 17.9442 39.8215 18.6073C39.1585 19.2704 38.2591 19.6429 37.3214 19.6429C36.8571 19.6429 36.3973 19.5514 35.9684 19.3737C35.5394 19.196 35.1496 18.9356 34.8213 18.6073C34.493 18.279 34.2325 17.8892 34.0548 17.4602C33.8772 17.0312 33.7857 16.5715 33.7857 16.1072C33.7857 15.6428 33.8772 15.1831 34.0548 14.7541C34.2325 14.3251 34.493 13.9353 34.8213 13.607C35.1496 13.2787 35.5394 13.0183 35.9684 12.8406C36.3973 12.6629 36.8571 12.5714 37.3214 12.5714C37.7857 12.5714 38.2455 12.6629 38.6745 12.8406C39.1035 13.0183 39.4932 13.2787 39.8215 13.607C40.1499 13.9353 40.4103 14.3251 40.588 14.7541C40.7657 15.1831 40.8571 15.6428 40.8571 16.1072Z" fill="#FFF59D"/>
<path fill-rule="evenodd" clip-rule="evenodd" d="M22.4412 14.911C22.8108 14.9625 23.2072 15.118 23.7132 15.4686C24.5907 16.0766 25.3611 16.4386 25.9207 16.6503C25.3431 17.8264 23.904 17.4894 22.5383 18.0967C21.1726 18.7039 19.9693 18.0411 18.3789 17.8289C16.7787 17.6133 15.2685 19.1585 14.1085 18.2033C12.9485 17.2482 10.6772 17.4866 10.4418 16.1908C10.8571 16.4139 12.7692 15.2177 13.0831 15.5226C14.2713 16.6764 16.0034 14.6388 18.7518 15.0399C20.7273 15.3281 21.4967 14.7796 22.4412 14.911Z" fill="#FFA000"/>
<path fill-rule="evenodd" clip-rule="evenodd" d="M33.8189 18.9413C33.4975 19.046 33.1729 19.2613 32.7891 19.692C32.1236 20.4391 31.5047 20.9187 31.0448 21.2145C31.7998 22.34 33.0242 21.792 34.3724 22.2231C35.7206 22.6542 36.6676 21.8051 38.0528 21.364C39.4461 20.9179 41.1127 22.2909 41.9621 21.148C42.8115 20.0051 44.8985 19.9306 44.8493 18.5681C44.5214 18.8553 42.5641 17.8968 42.3436 18.2537C41.5088 19.6044 39.5441 17.7574 37.1572 18.5551C35.4416 19.1284 34.6405 18.6737 33.8189 18.9413Z" fill="#FFA000"/>
<rect x="2" y="2" width="51" height="51" rx="25.5" fill="black" fill-opacity="0.45"/>
<path d="M23.158 50.12C23.964 50.224 24.666 49.496 24.978 48.82C25.68 47.26 26.33 45.674 26.928 44.062C27.032 43.88 27.136 43.698 27.24 43.516C28.306 41.54 29.398 39.59 30.568 37.692C31.27 36.548 31.998 35.404 32.752 34.286C32.518 35.066 32.284 35.846 32.05 36.626C31.322 39.096 30.75 41.618 30.672 44.218C30.62 46.09 33.09 45.336 33.402 43.958C34.052 42.658 34.546 41.28 35.17 39.954C35.872 38.498 36.652 37.094 37.51 35.742C38.03 34.936 38.602 34.156 39.174 33.376C38.368 35.17 37.718 36.99 37.25 38.914C36.782 40.916 36.418 42.918 36.314 44.972C36.262 45.96 36.262 46.948 36.34 47.936C36.418 48.924 36.418 50.172 36.938 51.03C37.12 51.342 37.484 51.004 37.536 50.77C37.77 49.808 37.64 48.716 37.692 47.728C37.744 46.714 37.848 45.7 38.004 44.712C38.316 42.71 38.81 40.734 39.512 38.836C40.188 37.042 40.942 35.248 41.722 33.506C42.112 32.648 42.528 31.79 42.97 30.932C43.412 30.048 44.036 29.164 44.322 28.202C44.374 28.02 44.4 27.864 44.4 27.708C44.4 27.682 44.4 27.656 44.4 27.656C44.452 27.032 44.01 26.356 43.256 26.564C41.54 27.058 40.292 28.852 39.226 30.178C38.108 31.582 37.068 33.038 36.184 34.598C35.352 36.054 34.598 37.588 33.948 39.148C34.156 38.238 34.39 37.328 34.65 36.444C35.378 34.052 36.418 31.634 36.756 29.164C36.886 28.15 35.716 27.812 35.014 28.384C34.338 28.956 34.364 29.008 33.792 29.71C33.298 30.282 32.856 30.906 32.44 31.53C31.296 33.22 30.282 35.014 29.294 36.834C29.138 37.12 28.982 37.406 28.826 37.692C29.294 35.846 29.658 33.974 29.736 32.076C29.762 31.14 29.762 30.204 29.658 29.294C29.554 28.41 29.19 27.734 28.852 26.928C28.566 26.226 27.682 27.11 27.708 27.578C27.734 28.436 27.552 29.32 27.5 30.178C27.448 31.088 27.344 31.998 27.188 32.908C26.876 34.806 26.46 36.678 25.966 38.524C25.03 42.008 23.756 45.414 22.248 48.716C21.962 49.366 22.274 50.146 23.002 50.25L23.158 50.12ZM53.5591 38.472C53.2731 38.732 53.1171 39.122 52.9091 39.46C52.7011 39.798 52.4411 40.11 52.2071 40.448C51.7391 41.072 51.2451 41.696 50.7511 42.32C50.2831 42.892 49.8151 43.464 49.2691 43.958C49.1391 44.062 48.7751 44.348 48.6711 44.4C48.5671 44.478 48.4371 44.556 48.3071 44.608C48.0211 44.53 47.9691 44.504 48.1511 44.556C48.0731 44.53 47.9951 44.504 47.9171 44.478C47.8911 44.452 47.8911 44.452 47.8651 44.452C47.8391 44.426 47.8391 44.426 47.8391 44.426C47.8131 44.374 47.7871 44.322 47.7611 44.27C47.7611 44.27 47.7611 44.218 47.7351 44.14C47.7351 44.062 47.7351 43.984 47.7351 43.906C47.7351 44.062 47.7351 44.036 47.7351 43.854C47.7611 43.464 47.8131 43.074 47.8911 42.684C47.9171 42.606 47.9431 42.528 47.9691 42.45C47.9691 42.424 47.9691 42.398 47.9951 42.32C48.0471 42.138 48.0991 41.956 48.1771 41.774C48.4891 40.916 48.6971 40.552 49.1131 39.824C49.5291 39.122 49.9971 38.446 50.4391 37.77C50.8031 37.224 50.8811 36.288 50.1791 35.976C49.4511 35.664 48.6191 36.262 48.2291 36.834C48.0471 37.094 47.8911 37.354 47.7351 37.614C47.7091 37.562 47.6831 37.51 47.6571 37.458C47.0591 36.704 46.0451 36.366 45.1091 36.574C44.0691 36.808 43.2371 37.588 42.5351 38.368C41.2871 39.772 40.3511 41.41 39.6751 43.152C39.3631 43.958 39.0251 44.868 38.9731 45.752C38.8951 46.87 39.7011 47.936 40.8971 47.624C41.9891 47.338 42.6131 46.35 43.2631 45.518C43.9131 44.686 44.5111 43.802 45.1351 42.944C45.1611 42.918 45.1871 42.892 45.2131 42.866C45.1611 43.048 45.1091 43.23 45.0831 43.412C44.9531 44.14 44.8491 44.972 45.0051 45.7C45.2131 46.558 45.8371 47.26 46.7731 47.312C47.0331 47.312 47.2931 47.286 47.5271 47.208C47.6831 47.156 47.8131 47.104 47.9691 47.026C48.3071 46.844 48.0991 46.974 48.0471 47C48.4111 46.844 48.7751 46.636 49.1131 46.402C50.3091 45.518 51.0891 44.296 51.8691 43.048C52.3111 42.32 52.7791 41.592 53.1691 40.838C53.3511 40.5 53.5071 40.136 53.6891 39.772C53.8711 39.434 54.1051 39.07 54.0531 38.68C54.0271 38.368 53.6891 38.498 53.5591 38.628V38.472ZM44.9011 39.33C44.9271 39.33 44.9271 39.33 44.9011 39.33V39.33ZM43.9651 40.318C43.9131 40.37 43.8611 40.422 43.9391 40.318H43.9651ZM44.6671 41.748C44.0691 42.476 43.4711 43.204 42.8471 43.932C42.5611 44.27 42.2491 44.608 41.9371 44.946C41.8331 45.05 41.7291 45.154 41.6251 45.258C41.6251 45.232 41.6251 45.206 41.6251 45.206C41.7291 44.764 41.9371 44.322 42.0931 43.88C42.2231 43.516 42.3531 43.152 42.5091 42.788C42.5871 42.606 42.6651 42.424 42.7431 42.242C42.7431 42.216 42.7951 42.112 42.8211 42.06C42.8471 42.008 42.9251 41.878 42.9251 41.852C43.1331 41.488 43.3411 41.15 43.5751 40.812C43.6791 40.656 43.8091 40.5 43.9391 40.344C43.9391 40.318 43.9391 40.318 43.9651 40.292C44.0431 40.188 44.1211 40.084 44.1991 39.98C44.3291 39.824 44.4591 39.668 44.6151 39.512C44.6411 39.486 44.6671 39.46 44.6931 39.434C44.7191 39.408 44.7711 39.356 44.7971 39.33C44.8231 39.356 45.0831 39.486 45.0051 39.434C45.2911 39.642 45.3691 39.876 45.5511 40.162C45.6031 40.24 45.6551 40.318 45.7071 40.396C45.3431 40.864 44.9791 41.332 44.6151 41.774L44.6671 41.748ZM63.1517 38.472C62.2157 40.006 61.3057 41.566 60.1877 42.996C59.7457 43.568 59.1997 44.296 58.6797 44.712C58.7057 44.686 58.5757 44.764 58.5237 44.79C58.4977 44.79 58.4977 44.79 58.4977 44.79C58.4717 44.79 58.4457 44.816 58.3677 44.79C58.3417 44.764 58.3417 44.764 58.3157 44.764C58.3157 44.738 58.2637 44.66 58.2377 44.556C58.2637 44.582 58.2377 44.296 58.2377 44.296C58.2897 43.464 58.7317 42.58 59.0697 41.748C59.4337 40.812 59.9017 39.824 60.0057 38.81C60.0577 38.264 60.0057 37.588 59.5897 37.146C59.0697 36.6 58.2117 36.6 57.5617 36.886C57.1977 37.042 56.8857 37.276 56.6257 37.562C56.5477 37.666 56.4697 37.77 56.3917 37.874C56.4697 37.744 56.4437 37.744 56.3397 37.874C56.2877 37.926 56.2357 38.004 56.1837 38.082C55.8197 38.446 55.4817 38.836 55.1697 39.226C55.1177 39.278 55.0917 39.33 55.0397 39.382C55.3257 38.81 55.6377 38.212 55.6637 37.614C55.6637 37.172 55.5337 36.756 55.0397 36.626C54.5197 36.496 54.0517 36.782 53.6877 37.12C52.9597 37.77 52.5957 38.81 52.2057 39.694C51.8677 40.5 51.5557 41.306 51.2957 42.138C51.0357 42.996 50.8017 43.854 50.6457 44.738C50.4897 45.544 50.2817 46.454 50.4897 47.26C50.6457 47.832 51.1917 47.806 51.5817 47.546C51.7117 47.52 51.8417 47.468 51.9457 47.39C52.7777 46.74 53.1937 45.726 53.7137 44.816C54.1557 44.062 54.5977 43.308 55.0917 42.58C55.5077 41.956 55.9237 41.358 56.3917 40.786C56.6257 40.5 56.8597 40.214 57.1197 39.928C57.1717 39.876 57.2237 39.824 57.2757 39.772C57.2757 39.85 57.2757 39.928 57.2757 39.98C57.2757 39.98 57.2497 40.058 57.1977 40.24C57.1457 40.396 57.0937 40.552 57.0417 40.708C56.9117 41.072 56.7817 41.436 56.6517 41.8C56.2617 42.97 55.5597 44.712 56.1577 45.934C56.5217 46.662 57.5617 46.766 58.2377 46.506C58.7057 46.324 59.0437 46.012 59.3817 45.648C60.2917 44.712 60.9937 43.594 61.6957 42.502C62.4497 41.332 63.2817 40.084 63.7757 38.758C63.9837 38.212 63.2817 38.212 63.0477 38.576L63.1517 38.472ZM74.6498 28.54C73.9218 28.176 73.0898 28.826 72.6998 29.372C70.9318 31.816 69.4238 34.494 68.3838 37.328C67.7858 36.574 66.7718 36.236 65.8358 36.444C64.7958 36.678 63.9638 37.458 63.2618 38.238C62.0138 39.642 61.0778 41.28 60.4018 43.022C60.0898 43.828 59.7518 44.738 59.6998 45.622C59.6218 46.74 60.4278 47.806 61.6238 47.494C62.7158 47.208 63.3398 46.22 63.9898 45.388C64.6398 44.556 65.2378 43.672 65.8618 42.814C66.3298 42.138 66.7978 41.462 67.2658 40.786C66.5118 44.01 66.1478 47.572 67.8378 50.51C68.0978 50.978 68.8518 50.432 68.7478 50.016C67.9418 46.584 68.9558 42.502 70.1518 39.278C71.3478 36.08 72.7778 33.116 74.8058 30.334C75.1958 29.788 75.2218 28.852 74.5458 28.514L74.6498 28.54ZM65.5238 39.174C65.5498 39.174 65.5498 39.174 65.5238 39.174V39.174ZM64.5878 40.162C64.5358 40.214 64.4838 40.266 64.5618 40.162H64.5878ZM65.2898 41.592C64.6918 42.32 64.0938 43.048 63.4698 43.776C63.1838 44.114 62.8718 44.452 62.5598 44.79C62.4558 44.894 62.3518 44.998 62.2478 45.102C62.2478 45.076 62.2478 45.05 62.2478 45.05C62.3518 44.608 62.5598 44.166 62.7158 43.724C62.8458 43.36 62.9758 42.996 63.1318 42.632C63.2098 42.45 63.2878 42.268 63.3658 42.086C63.3658 42.06 63.4178 41.956 63.4438 41.904C63.4698 41.852 63.5478 41.722 63.5478 41.696C63.7558 41.332 63.9638 40.994 64.1978 40.656C64.3018 40.5 64.4318 40.344 64.5618 40.188C64.5618 40.162 64.5618 40.162 64.5878 40.136C64.6658 40.032 64.7438 39.928 64.8218 39.824C64.9518 39.668 65.0818 39.512 65.2378 39.356C65.2638 39.33 65.2898 39.304 65.3158 39.278C65.3418 39.252 65.3938 39.2 65.4198 39.174C65.4458 39.2 65.7058 39.33 65.6278 39.278C65.9138 39.486 65.9918 39.72 66.1738 40.006C66.2258 40.084 66.2778 40.162 66.3298 40.24C65.9658 40.708 65.6018 41.176 65.2378 41.618L65.2898 41.592ZM83.7993 38.472C83.5133 38.732 83.3573 39.122 83.1493 39.46C82.9413 39.798 82.6813 40.11 82.4473 40.448C81.9793 41.072 81.4853 41.696 80.9913 42.32C80.5233 42.892 80.0553 43.464 79.5093 43.958C79.3793 44.062 79.0153 44.348 78.9113 44.4C78.8073 44.478 78.6773 44.556 78.5473 44.608C78.2613 44.53 78.2093 44.504 78.3913 44.556C78.3133 44.53 78.2353 44.504 78.1573 44.478C78.1313 44.452 78.1313 44.452 78.1053 44.452C78.0793 44.426 78.0793 44.426 78.0793 44.426C78.0533 44.374 78.0273 44.322 78.0013 44.27C78.0013 44.27 78.0013 44.218 77.9753 44.14C77.9753 44.062 77.9753 43.984 77.9753 43.906C77.9753 44.062 77.9753 44.036 77.9753 43.854C78.0013 43.464 78.0533 43.074 78.1313 42.684C78.1573 42.606 78.1833 42.528 78.2093 42.45C78.2093 42.424 78.2093 42.398 78.2353 42.32C78.2873 42.138 78.3393 41.956 78.4173 41.774C78.7293 40.916 78.9373 40.552 79.3533 39.824C79.7693 39.122 80.2373 38.446 80.6793 37.77C81.0433 37.224 81.1213 36.288 80.4193 35.976C79.6913 35.664 78.8593 36.262 78.4693 36.834C78.2873 37.094 78.1313 37.354 77.9753 37.614C77.9493 37.562 77.9233 37.51 77.8973 37.458C77.2993 36.704 76.2853 36.366 75.3493 36.574C74.3093 36.808 73.4773 37.588 72.7753 38.368C71.5273 39.772 70.5913 41.41 69.9153 43.152C69.6033 43.958 69.2653 44.868 69.2133 45.752C69.1353 46.87 69.9413 47.936 71.1373 47.624C72.2293 47.338 72.8533 46.35 73.5033 45.518C74.1533 44.686 74.7513 43.802 75.3753 42.944C75.4013 42.918 75.4273 42.892 75.4533 42.866C75.4013 43.048 75.3493 43.23 75.3233 43.412C75.1933 44.14 75.0893 44.972 75.2453 45.7C75.4533 46.558 76.0773 47.26 77.0133 47.312C77.2733 47.312 77.5333 47.286 77.7673 47.208C77.9233 47.156 78.0533 47.104 78.2093 47.026C78.5473 46.844 78.3393 46.974 78.2873 47C78.6513 46.844 79.0153 46.636 79.3533 46.402C80.5493 45.518 81.3293 44.296 82.1093 43.048C82.5513 42.32 83.0193 41.592 83.4093 40.838C83.5913 40.5 83.7473 40.136 83.9293 39.772C84.1113 39.434 84.3453 39.07 84.2933 38.68C84.2673 38.368 83.9293 38.498 83.7993 38.628V38.472ZM75.1413 39.33C75.1673 39.33 75.1673 39.33 75.1413 39.33V39.33ZM74.2053 40.318C74.1533 40.37 74.1013 40.422 74.1793 40.318H74.2053ZM74.9073 41.748C74.3093 42.476 73.7113 43.204 73.0873 43.932C72.8013 44.27 72.4893 44.608 72.1773 44.946C72.0733 45.05 71.9693 45.154 71.8653 45.258C71.8653 45.232 71.8653 45.206 71.8653 45.206C71.9693 44.764 72.1773 44.322 72.3333 43.88C72.4633 43.516 72.5933 43.152 72.7493 42.788C72.8273 42.606 72.9053 42.424 72.9833 42.242C72.9833 42.216 73.0353 42.112 73.0613 42.06C73.0873 42.008 73.1653 41.878 73.1653 41.852C73.3733 41.488 73.5813 41.15 73.8153 40.812C73.9193 40.656 74.0493 40.5 74.1793 40.344C74.1793 40.318 74.1793 40.318 74.2053 40.292C74.2833 40.188 74.3613 40.084 74.4393 39.98C74.5693 39.824 74.6993 39.668 74.8553 39.512C74.8813 39.486 74.9073 39.46 74.9333 39.434C74.9593 39.408 75.0113 39.356 75.0373 39.33C75.0633 39.356 75.3233 39.486 75.2453 39.434C75.5313 39.642 75.6093 39.876 75.7913 40.162C75.8433 40.24 75.8953 40.318 75.9473 40.396C75.5833 40.864 75.2193 41.332 74.8553 41.774L74.9073 41.748ZM91.5459 38.524C90.5579 40.058 89.5439 41.566 88.3739 42.944C87.5939 43.854 86.3979 45.44 85.0199 45.284C84.4219 45.232 84.0059 44.712 83.9019 44.244C83.7459 43.594 83.9799 42.606 84.1359 42.086C84.2399 41.722 84.3699 41.384 84.5259 41.046C84.6039 40.89 84.6819 40.734 84.7599 40.578C84.7859 40.552 84.8119 40.5 84.8119 40.5C84.8639 40.396 84.9159 40.292 84.9679 40.188C85.1759 39.85 85.3839 39.512 85.6179 39.2C85.6439 39.148 85.6699 39.096 85.6959 39.044C85.7219 39.018 85.7739 38.966 85.7999 38.94C85.9299 38.784 86.0599 38.628 86.2159 38.472C86.3719 38.29 86.5539 38.134 86.7359 37.978C86.8399 37.9 86.9439 37.822 87.0479 37.744C87.0999 37.718 87.1519 37.692 87.2039 37.666C87.1779 37.692 87.1519 37.718 87.1259 37.744C86.8659 38.342 86.6319 39.096 87.2039 39.616C87.7239 40.084 88.4259 39.694 88.8679 39.304C89.3619 38.862 89.6479 38.186 89.8559 37.562C90.0639 36.912 90.1679 36.184 89.8299 35.56C89.1019 34.234 87.3599 34.702 86.3199 35.3C84.3699 36.444 82.8879 38.524 82.0039 40.552C81.1719 42.424 80.2619 45.596 82.0559 47.182C83.0179 48.014 84.4219 47.832 85.5139 47.39C86.5539 46.974 87.4639 46.194 88.2179 45.362C89.9599 43.438 91.4159 41.072 92.3779 38.654C92.6379 38.004 91.7799 38.004 91.4939 38.42L91.5459 38.524ZM87.2299 37.276C87.2299 37.276 87.3339 36.99 87.2299 37.302V37.276ZM102.512 38.472C102.226 38.732 102.07 39.122 101.862 39.46C101.654 39.798 101.394 40.11 101.16 40.448C100.692 41.072 100.198 41.696 99.7042 42.32C99.2362 42.892 98.7682 43.464 98.2222 43.958C98.0922 44.062 97.7282 44.348 97.6242 44.4C97.5202 44.478 97.3902 44.556 97.2602 44.608C96.9742 44.53 96.9222 44.504 97.1042 44.556C97.0262 44.53 96.9482 44.504 96.8702 44.478C96.8442 44.452 96.8442 44.452 96.8182 44.452C96.7922 44.426 96.7922 44.426 96.7922 44.426C96.7662 44.374 96.7402 44.322 96.7142 44.27C96.7142 44.27 96.7142 44.218 96.6882 44.14C96.6882 44.062 96.6882 43.984 96.6882 43.906C96.6882 44.062 96.6882 44.036 96.6882 43.854C96.7142 43.464 96.7662 43.074 96.8442 42.684C96.8702 42.606 96.8962 42.528 96.9222 42.45C96.9222 42.424 96.9222 42.398 96.9482 42.32C97.0002 42.138 97.0522 41.956 97.1302 41.774C97.4422 40.916 97.6502 40.552 98.0662 39.824C98.4822 39.122 98.9502 38.446 99.3922 37.77C99.7562 37.224 99.8342 36.288 99.1322 35.976C98.4042 35.664 97.5722 36.262 97.1822 36.834C97.0002 37.094 96.8442 37.354 96.6882 37.614C96.6622 37.562 96.6362 37.51 96.6102 37.458C96.0122 36.704 94.9982 36.366 94.0622 36.574C93.0222 36.808 92.1902 37.588 91.4882 38.368C90.2402 39.772 89.3042 41.41 88.6282 43.152C88.3162 43.958 87.9782 44.868 87.9262 45.752C87.8482 46.87 88.6542 47.936 89.8502 47.624C90.9422 47.338 91.5662 46.35 92.2162 45.518C92.8662 44.686 93.4642 43.802 94.0882 42.944C94.1142 42.918 94.1402 42.892 94.1662 42.866C94.1142 43.048 94.0622 43.23 94.0362 43.412C93.9062 44.14 93.8022 44.972 93.9582 45.7C94.1662 46.558 94.7902 47.26 95.7262 47.312C95.9862 47.312 96.2462 47.286 96.4802 47.208C96.6362 47.156 96.7662 47.104 96.9222 47.026C97.2602 46.844 97.0522 46.974 97.0002 47C97.3642 46.844 97.7282 46.636 98.0662 46.402C99.2622 45.518 100.042 44.296 100.822 43.048C101.264 42.32 101.732 41.592 102.122 40.838C102.304 40.5 102.46 40.136 102.642 39.772C102.824 39.434 103.058 39.07 103.006 38.68C102.98 38.368 102.642 38.498 102.512 38.628V38.472ZM93.8542 39.33C93.8802 39.33 93.8802 39.33 93.8542 39.33V39.33ZM92.9182 40.318C92.8662 40.37 92.8142 40.422 92.8922 40.318H92.9182ZM93.6202 41.748C93.0222 42.476 92.4242 43.204 91.8002 43.932C91.5142 44.27 91.2022 44.608 90.8902 44.946C90.7862 45.05 90.6822 45.154 90.5782 45.258C90.5782 45.232 90.5782 45.206 90.5782 45.206C90.6822 44.764 90.8902 44.322 91.0462 43.88C91.1762 43.516 91.3062 43.152 91.4622 42.788C91.5402 42.606 91.6182 42.424 91.6962 42.242C91.6962 42.216 91.7482 42.112 91.7742 42.06C91.8002 42.008 91.8782 41.878 91.8782 41.852C92.0862 41.488 92.2942 41.15 92.5282 40.812C92.6322 40.656 92.7622 40.5 92.8922 40.344C92.8922 40.318 92.8922 40.318 92.9182 40.292C92.9962 40.188 93.0742 40.084 93.1522 39.98C93.2822 39.824 93.4122 39.668 93.5682 39.512C93.5942 39.486 93.6202 39.46 93.6462 39.434C93.6722 39.408 93.7242 39.356 93.7502 39.33C93.7762 39.356 94.0362 39.486 93.9582 39.434C94.2442 39.642 94.3222 39.876 94.5042 40.162C94.5562 40.24 94.6082 40.318 94.6602 40.396C94.2962 40.864 93.9322 41.332 93.5682 41.774L93.6202 41.748ZM112.417 38.368C112.183 38.706 111.923 39.2 111.585 39.408C111.195 39.642 111.013 39.46 110.727 39.174C110.233 38.654 109.999 37.978 109.609 37.406C109.037 36.574 108.257 36.132 107.243 36.366C106.281 36.574 105.579 37.328 104.955 38.056C104.617 38.472 104.305 38.914 103.993 39.356C104.097 39.096 104.201 38.81 104.331 38.55C104.799 37.536 105.397 36.574 105.813 35.534C106.073 34.91 105.813 34.104 105.059 34.026C104.227 33.948 103.577 34.65 103.239 35.326C102.225 37.328 101.185 39.278 100.509 41.436C100.171 42.528 99.8848 43.646 99.6768 44.79C99.5988 45.284 99.4948 45.778 99.4428 46.272C99.3908 46.766 99.2608 47.52 99.5468 47.936C99.8848 48.43 100.457 48.274 100.847 47.91C101.237 47.52 101.497 46.974 101.679 46.402C101.991 45.882 102.251 45.336 102.537 44.816C102.927 44.114 103.317 43.412 103.733 42.736C104.123 42.086 104.513 41.436 105.007 40.864C105.475 40.292 105.995 39.616 106.593 39.2C107.035 38.888 107.165 39.356 107.399 39.72C107.867 40.396 108.387 40.994 109.219 41.228C110.961 41.722 112.469 40.136 113.275 38.81C113.717 38.082 112.807 37.848 112.417 38.42V38.368ZM124.406 38.472C124.146 38.706 124.016 39.044 123.834 39.356C123.652 39.668 123.444 39.954 123.21 40.24C122.768 40.812 122.352 41.384 121.91 41.93C121.468 42.476 121.026 43.022 120.558 43.516C120.142 43.932 119.778 44.27 119.284 44.478C119.258 44.478 119.232 44.478 119.206 44.478C119.102 44.452 118.868 44.426 119.024 44.478C118.946 44.452 118.868 44.426 118.79 44.4C118.79 44.4 118.764 44.374 118.738 44.348C118.764 44.348 118.686 44.27 118.686 44.296C118.66 44.244 118.634 44.166 118.634 44.166C118.634 44.166 118.634 44.14 118.634 44.114C118.634 44.062 118.634 44.01 118.634 43.958C118.634 43.906 118.634 43.88 118.634 43.854C118.634 43.854 118.634 43.854 118.634 43.828C118.66 43.672 118.686 43.516 118.712 43.36C118.738 43.152 118.79 42.944 118.842 42.736C118.868 42.632 118.894 42.528 118.92 42.424C118.842 42.736 118.92 42.372 118.946 42.268C119.102 41.722 119.284 41.202 119.466 40.682C119.674 40.058 119.908 39.434 120.168 38.836C120.298 38.55 120.428 38.264 120.558 37.978C120.584 37.926 120.61 37.874 120.636 37.822C120.714 37.666 120.792 37.51 120.87 37.38C121.208 36.808 121.364 35.898 120.636 35.56C119.934 35.248 119.024 35.82 118.66 36.418C117.932 37.666 117.36 39.018 116.866 40.396C116.866 40.422 116.866 40.448 116.866 40.474C116.84 40.526 116.814 40.578 116.788 40.63C116.138 41.826 115.436 43.1 114.5 44.088C114.318 44.27 114.084 44.478 113.902 44.582C113.824 44.634 113.512 44.712 113.434 44.712C113.434 44.712 113.408 44.712 113.382 44.712C113.382 44.582 113.382 44.452 113.382 44.322C113.382 44.27 113.382 44.218 113.382 44.166C113.382 44.14 113.382 44.088 113.382 44.062C113.46 42.736 113.668 41.878 114.084 40.734C114.188 40.448 114.292 40.162 114.422 39.876C114.474 39.746 114.526 39.616 114.578 39.486C114.604 39.434 114.63 39.382 114.656 39.33C114.89 38.888 115.15 38.446 115.462 38.056C115.852 37.536 115.878 36.574 115.202 36.262C114.448 35.924 113.668 36.548 113.252 37.094C112.498 38.108 111.952 39.304 111.51 40.474C110.938 41.982 110.574 43.542 110.574 45.154C110.574 45.986 110.652 46.974 111.562 47.312C112.472 47.65 113.642 47.104 114.344 46.558C114.942 46.09 115.436 45.518 115.878 44.894C115.878 45.362 115.93 45.83 116.138 46.22C116.684 47.234 117.776 47.442 118.764 47.026C120.376 46.324 121.468 45.05 122.378 43.594C122.898 42.788 123.418 41.982 123.886 41.15C124.12 40.76 124.302 40.344 124.51 39.928C124.692 39.538 125.004 39.096 124.952 38.654C124.926 38.342 124.588 38.472 124.458 38.602L124.406 38.472ZM114.708 39.382C114.682 39.46 114.656 39.486 114.708 39.382V39.382Z" fill="white"/>
</svg>
