<svg width="39" height="44" viewBox="0 0 39 44" fill="none" xmlns="http://www.w3.org/2000/svg">
<g clip-path="url(#clip0_3_110)">
<path d="M32.8014 8.34453C29.1931 4.73516 24.3879 2.75 19.2812 2.75C8.74072 2.75 0.163619 11.3094 0.163619 21.8281C0.163619 25.1883 1.042 28.4711 2.71264 31.3672L0 41.25L10.1358 38.5945C12.9259 40.1156 16.0691 40.9148 19.2726 40.9148H19.2812C29.8132 40.9148 38.5797 32.3555 38.5797 21.8367C38.5797 16.7406 36.4096 11.9539 32.8014 8.34453ZM19.2812 37.7008C16.4222 37.7008 13.6235 36.9359 11.1864 35.4922L10.6094 35.1484L4.59856 36.7211L6.20031 30.8688L5.8214 30.2672C4.22827 27.7406 3.39295 24.8273 3.39295 21.8281C3.39295 13.0883 10.5233 5.97266 19.2899 5.97266C23.5353 5.97266 27.5225 7.62266 30.5193 10.6219C33.5161 13.6211 35.359 17.6 35.3504 21.8367C35.3504 30.5852 28.0392 37.7008 19.2812 37.7008ZM27.9961 25.8242C27.5225 25.5836 25.1715 24.432 24.7324 24.2773C24.2932 24.1141 23.9745 24.0367 23.6559 24.518C23.3373 24.9992 22.4245 26.0648 22.1403 26.3914C21.8647 26.7094 21.5805 26.7523 21.1069 26.5117C18.2995 25.1109 16.4567 24.0109 14.6052 20.8398C14.1143 19.9977 15.096 20.0578 16.0089 18.2359C16.1639 17.918 16.0864 17.643 15.9658 17.4023C15.8452 17.1617 14.8894 14.8156 14.4932 13.8617C14.1057 12.9336 13.7096 13.0625 13.4168 13.0453C13.1412 13.0281 12.8226 13.0281 12.504 13.0281C12.1853 13.0281 11.6686 13.1484 11.2295 13.6211C10.7903 14.1023 9.55881 15.2539 9.55881 17.6C9.55881 19.9461 11.2725 22.2148 11.505 22.5328C11.7461 22.8508 14.8721 27.6633 19.6688 29.7344C22.7 31.0406 23.8884 31.1523 25.4041 30.9289C26.3255 30.7914 28.2286 29.7773 28.6248 28.6602C29.0209 27.543 29.0209 26.5891 28.9003 26.3914C28.7884 26.1766 28.4698 26.0562 27.9961 25.8242Z" fill="#FFA000"/>
</g>
<defs>
<clipPath id="clip0_3_110">
<rect width="38.5797" height="44" fill="white"/>
</clipPath>
</defs>
</svg>
